Coordinates
version=1
nRows=21
nColumns=27
inDegrees=yes

Units are S.I. units (second, meters, Newtons, ...)
If the header above contains a line with 'inDegrees', this indicates whether rotational values are in degrees (yes) or radians (no).

endheader
time	pelvis_rotation	pelvis_tilt	pelvis_list	pelvis_tx	pelvis_ty	pelvis_tz	hip_flexion_r	hip_adduction_r	hip_rotation_r	knee_angle_r	knee_rotation_r	knee_adduction_r	knee_angle_r_beta	ankle_angle_r	subtalar_angle_r	mtp_angle_r	hip_flexion_l	hip_adduction_l	hip_rotation_l	knee_angle_l	knee_rotation_l	knee_adduction_l	knee_angle_l_beta	ankle_angle_l	subtalar_angle_l	mtp_angle_l
      4.64000000	      7.07127279	    -26.70771243	      0.33804545	      0.04659691	      0.45153132	     -1.15846912	    118.38833980	    -47.57038757	     24.84143030	    109.93899646	      0.00000000	      9.94272111	      1.91879746	     19.41391856	      0.00000000	      0.00000000	    119.48680225	    -28.23547489	     24.18685703	    104.27471623	      0.00000000	     -9.95837670	      1.81993712	     16.25341379	      0.00000000	      0.00000000
      4.64500000	      7.12101929	    -26.76165687	      0.37085975	      0.04619549	      0.45186703	     -1.15851862	    118.43330605	    -47.53989355	     24.85914812	    109.89728006	      0.00000000	      9.94239898	      1.91806938	     19.36481254	      0.00000000	      0.00000000	    119.51354234	    -28.19197775	     24.10061707	    104.22068005	      0.00000000	     -9.95826461	      1.81899402	     16.16278410	      0.00000000	      0.00000000
      4.65000000	      7.19052582	    -26.81467350	      0.39661972	      0.04578010	      0.45226191	     -1.15859033	    118.45121068	    -47.54024457	     24.85411595	    109.84179227	      0.00000000	      9.94208385	      1.91710093	     19.33193954	      0.00000000	      0.00000000	    119.53286590	    -28.11785372	     24.01489804	    104.16483743	      0.00000000	     -9.95815298	      1.81801938	     16.08923428	      0.00000000	      0.00000000
      4.65500000	      7.30775593	    -26.82915514	      0.39377919	      0.04539329	      0.45268751	     -1.15865948	    118.39269686	    -47.62179093	     24.80297157	    109.77706828	      0.00000000	      9.94179977	      1.91597128	     19.32066228	      0.00000000	      0.00000000	    119.52868181	    -27.97824913	     23.95708051	    104.10715850	      0.00000000	     -9.95803541	      1.81701269	     16.04011559	      0.00000000	      0.00000000
      4.66000000	      7.41515037	    -26.94279972	      0.43457437	      0.04491589	      0.45324487	     -1.15873653	    118.48593452	    -47.66232236	     24.80350370	    109.70784566	      0.00000000	      9.94142472	      1.91476312	     19.22651862	      0.00000000	      0.00000000	    119.57790443	    -27.86712953	     23.83433888	    104.02025302	      0.00000000	     -9.95789840	      1.81549590	     15.91966163	      0.00000000	      0.00000000
      4.66500000	      7.46259066	    -27.05409443	      0.50274865	      0.04434653	      0.45378148	     -1.15880327	    118.59503432	    -47.58943045	     24.84115866	    109.63761135	      0.00000000	      9.94100300	      1.91353730	     19.17384738	      0.00000000	      0.00000000	    119.62070345	    -27.83313075	     23.69506500	    103.93708906	      0.00000000	     -9.95778144	      1.81404442	     15.80521703	      0.00000000	      0.00000000
      4.67000000	      7.54504781	    -27.16724277	      0.55558265	      0.04376712	      0.45439112	     -1.15887417	    118.68222636	    -47.57066146	     24.85081155	    109.55706410	      0.00000000	      9.94059052	      1.91213149	     19.12817222	      0.00000000	      0.00000000	    119.66587539	    -27.75482259	     23.56039726	    103.84258014	      0.00000000	     -9.95761964	      1.81239493	     15.67996179	      0.00000000	      0.00000000
      4.67500000	      7.63640620	    -27.24011244	      0.59426117	      0.04322483	      0.45510780	     -1.15895136	    118.68295620	    -47.57934714	     24.81176001	    109.46020871	      0.00000000	      9.94016252	      1.91044104	     19.04202680	      0.00000000	      0.00000000	    119.66027639	    -27.66101901	     23.42781287	    103.73912094	      0.00000000	     -9.95747085	      1.81058922	     15.56721064	      0.00000000	      0.00000000
      4.68000000	      7.72508111	    -27.31247950	      0.65008272	      0.04265919	      0.45589805	     -1.15903308	    118.70205365	    -47.58316539	     24.78843549	    109.35530619	      0.00000000	      9.93971100	      1.90861015	     18.98270922	      0.00000000	      0.00000000	    119.63122248	    -27.58389891	     23.26737138	    103.62039470	      0.00000000	     -9.95730601	      1.80851706	     15.46919258	      0.00000000	      0.00000000
      4.68500000	      7.86996083	    -27.39902690	      0.67831333	      0.04207483	      0.45673034	     -1.15915867	    118.69093726	    -47.66154057	     24.72225730	    109.23711538	      0.00000000	      9.93924681	      1.90654733	     18.91997589	      0.00000000	      0.00000000	    119.63185440	    -27.41689672	     23.13855997	    103.50504940	      0.00000000	     -9.95709830	      1.80650390	     15.35753861	      0.00000000	      0.00000000
      4.69000000	      7.92982323	    -27.53259555	      0.77824831	      0.04137886	      0.45761814	     -1.15924640	    118.79458031	    -47.57735787	     24.75282165	    109.11610721	      0.00000000	      9.93872668	      1.90443534	     18.87750837	      0.00000000	      0.00000000	    119.63500145	    -27.39624210	     22.91914820	    103.36551476	      0.00000000	     -9.95691393	      1.80406857	     15.22324879	      0.00000000	      0.00000000
      4.69500000	      8.01647329	    -27.61262347	      0.78446385	      0.04074549	      0.45860769	     -1.15933996	    118.72369970	    -47.59797923	     24.62037508	    108.98310976	      0.00000000	      9.93809470	      1.90211409	     18.77159398	      0.00000000	      0.00000000	    119.61734493	    -27.27840630	     22.80483798	    103.22964597	      0.00000000	     -9.95671855	      1.80169721	     15.10433262	      0.00000000	      0.00000000
      4.70000000	      8.14863908	    -27.73942194	      0.84252378	      0.04003880	      0.45961160	     -1.15946786	    118.75793997	    -47.62804305	     24.57106696	    108.84278626	      0.00000000	      9.93758292	      1.89966499	     18.71376557	      0.00000000	      0.00000000	    119.61881957	    -27.13072640	     22.63314097	    103.08714788	      0.00000000	     -9.95645409	      1.79921015	     14.97826221	      0.00000000	      0.00000000
      4.70500000	      8.31461115	    -27.83257662	      0.86552992	      0.03936368	      0.46074705	     -1.15961612	    118.69208533	    -47.73778671	     24.45330859	    108.68062790	      0.00000000	      9.93698468	      1.89683479	     18.63716240	      0.00000000	      0.00000000	    119.57782379	    -26.92051978	     22.48304112	    102.92207145	      0.00000000	     -9.95620499	      1.79632902	     14.85283420	      0.00000000	      0.00000000
      4.71000000	      8.30709970	    -27.95657241	      0.94417972	      0.03857160	      0.46185550	     -1.15970305	    118.73211896	    -47.58457648	     24.40165466	    108.53103624	      0.00000000	      9.93623973	      1.89422392	     18.55791484	      0.00000000	      0.00000000	    119.54929373	    -26.95365347	     22.27912798	    102.76145287	      0.00000000	     -9.95596713	      1.79352570	     14.75318123	      0.00000000	      0.00000000
      4.71500000	      8.43501536	    -28.08481119	      0.98995906	      0.03778713	      0.46304941	     -1.15982862	    118.72547448	    -47.61092745	     24.31328751	    108.36782526	      0.00000000	      9.93554590	      1.89137535	     18.44522749	      0.00000000	      0.00000000	    119.53490385	    -26.79629478	     22.10747455	    102.58908637	      0.00000000	     -9.95567431	      1.79051733	     14.59172607	      0.00000000	      0.00000000
      4.72000000	      8.52630971	    -28.20786128	      1.05921023	      0.03699830	      0.46431949	     -1.15998953	    118.72695759	    -47.59181215	     24.23805172	    108.19060438	      0.00000000	      9.93477811	      1.88828227	     18.34652777	      0.00000000	      0.00000000	    119.48532499	    -26.69187758	     21.90138897	    102.41064593	      0.00000000	     -9.95537220	      1.78740296	     14.47121713	      0.00000000	      0.00000000
      4.72500000	      8.63398658	    -28.32728344	      1.11112873	      0.03615520	      0.46563668	     -1.16012163	    118.69460187	    -47.59284415	     24.12723379	    108.00731050	      0.00000000	      9.93397027	      1.88508318	     18.26476678	      0.00000000	      0.00000000	    119.43732791	    -26.55707331	     21.71403281	    102.21874651	      0.00000000	     -9.95505617	      1.78405368	     14.31903215	      0.00000000	      0.00000000
      4.73000000	      8.75541477	    -28.48363845	      1.16430492	      0.03527416	      0.46699429	     -1.16028374	    118.70289397	    -47.61051116	     24.01984746	    107.81438965	      0.00000000	      9.93314337	      1.88171608	     18.15622363	      0.00000000	      0.00000000	    119.42480362	    -26.40125730	     21.52581569	    102.02412225	      0.00000000	     -9.95469700	      1.78065685	     14.18044689	      0.00000000	      0.00000000
      4.73500000	      8.90246353	    -28.66498111	      1.24362339	      0.03433850	      0.46838719	     -1.16047309	    118.76264888	    -47.64174645	     23.94657033	    107.61351603	      0.00000000	      9.93225620	      1.87821017	     18.04945920	      0.00000000	      0.00000000	    119.41487297	    -26.21181383	     21.31494327	    101.82113689	      0.00000000	     -9.95431168	      1.77711409	     14.03790786	      0.00000000	      0.00000000
      4.74000000	      8.93865409	    -28.75549159	      1.30098723	      0.03344671	      0.46993763	     -1.16056256	    118.67337278	    -47.56408571	     23.79770553	    107.40886760	      0.00000000	      9.93129788	      1.87463839	     17.95556421	      0.00000000	      0.00000000	    119.28958179	    -26.16676980	     21.09745873	    101.59040225	      0.00000000	     -9.95397306	      1.77308701	     13.92609812	      0.00000000	      0.00000000
